<?xml version="1.0" encoding="UTF-8"?>
<svg xmlns="http://www.w3.org/2000/svg" version="1.1" xmlns:xlink="http://www.w3.org/1999/xlink" viewBox="0 0 500 500">
  <!-- Generator: Adobe Illustrator 29.1.0, SVG Export Plug-In . SVG Version: 2.1.0 Build 142)  -->
  <defs>
    <style>
      .st0 {
        fill: url(#linear-gradient1);
        opacity: .5;
      }

      .st0, .st1 {
        mix-blend-mode: multiply;
      }

      .st2 {
        isolation: isolate;
      }

      .st1 {
        fill: url(#linear-gradient);
        fill-opacity: .5;
      }

      .st3 {
        fill: #ea1b1b;
      }

      .st4 {
        fill: #cc1f1f;
      }
    </style>
    <linearGradient id="linear-gradient" x1="249.7" y1="250" x2="342.5" y2="250" gradientUnits="userSpaceOnUse">
      <stop offset="0" stop-color="#fff"/>
      <stop offset="1" stop-color="#000"/>
    </linearGradient>
    <linearGradient id="linear-gradient1" x1="158.2" x2="251.1" xlink:href="#linear-gradient"/>
  </defs>
  <g class="st2">
    <g id="Layer_1">
      <g>
        <path class="st1" d="M304.3,137c-16.3-11.8-35.4-17.7-54.6-17.7v31c12.8,0,25.5,3.9,36.4,11.8,21.7,15.8,30.8,43.7,22.5,69.2-8.3,25.5-32.1,42.8-58.9,42.8v106.6c40.2,0,75.9-101.5,88.3-139.8,12.4-38.3-1.2-80.2-33.7-103.8Z"/>
        <path class="st4" d="M304.3,137c-16.3-11.8-35.4-17.7-54.6-17.7v31c12.8,0,25.5,3.9,36.4,11.8,21.7,15.8,30.8,43.7,22.5,69.2-8.3,25.5-32.1,42.8-58.9,42.8v106.6c40.2,0,75.9-101.5,88.3-139.8,12.4-38.3-1.2-80.2-33.7-103.8Z"/>
        <path class="st0" d="M196.5,137c16.3-11.8,35.4-17.7,54.6-17.7v31c-12.8,0-25.5,3.9-36.4,11.8-21.7,15.8-30.8,43.7-22.5,69.2,8.3,25.5,32.1,42.8,58.9,42.8v106.6c-40.2,0-75.9-101.5-88.3-139.8-12.4-38.3,1.2-80.2,33.7-103.8Z"/>
        <path class="st3" d="M196.5,137c16.3-11.8,35.4-17.7,54.6-17.7v31c-12.8,0-25.5,3.9-36.4,11.8-21.7,15.8-30.8,43.7-22.5,69.2,8.3,25.5,32.1,42.8,58.9,42.8v106.6c-40.2,0-75.9-101.5-88.3-139.8-12.4-38.3,1.2-80.2,33.7-103.8Z"/>
      </g>
    </g>
  </g>
</svg>