<?xml version="1.0" encoding="UTF-8"?>
<svg id="svg8" xmlns="http://www.w3.org/2000/svg" version="1.1" xmlns:cc="http://creativecommons.org/ns#" xmlns:dc="http://purl.org/dc/elements/1.1/" xmlns:inkscape="http://www.inkscape.org/namespaces/inkscape" xmlns:rdf="http://www.w3.org/1999/02/22-rdf-syntax-ns#" xmlns:sodipodi="http://sodipodi.sourceforge.net/DTD/sodipodi-0.dtd" xmlns:svg="http://www.w3.org/2000/svg" viewBox="0 0 1717.8 2143">
  <!-- Generator: Adobe Illustrator 29.0.1, SVG Export Plug-In . SVG Version: 2.1.0 Build 192)  -->
  <defs>
    <style>
      .st0 {
        fill: #fff;
      }
    </style>
  </defs>
  <sodipodi:namedview id="base" bordercolor="#666666" borderopacity="1.0" inkscape:current-layer="text33" inkscape:cx="2359.4951" inkscape:cy="549.7405" inkscape:document-units="mm" inkscape:pageopacity="0.0" inkscape:pageshadow="2" inkscape:snap-global="false" inkscape:window-height="1057" inkscape:window-maximized="1" inkscape:window-width="1920" inkscape:window-x="-8" inkscape:window-y="-8" inkscape:zoom="0.12374369" pagecolor="#ffffff" showborder="false" showgrid="false" showguides="false"/>
  <g id="layer1" inkscape:groupmode="layer" inkscape:label="Layer 1">
    <rect id="rect18" x="2.8" y="2.8" width="1712.1" height="2137.3" rx="119.1" ry="119.1"/>
    <rect id="rect20" class="st0" x="8.5" y="8.5" width="1700.8" height="2126" rx="113.4" ry="113.4"/>
    <rect id="rect1284" x="43.9" y="43.9" width="1629.9" height="2055.1" rx="78" ry="78"/>
    <rect id="rect1286" class="st0" x="79.4" y="79.4" width="1559.1" height="1984.3" rx="42.5" ry="42.5"/>
    <g id="text1400">
      <g id="text1419">
        <path id="path1421" d="M319.1,570.4v-156.3l-51.5,156.3-52-156.3v156.3h-39.9v-278.5h39.9l52,156.3,51.5-156.3h40.3v278.5h-40.3Z" inkscape:connector-curvature="0"/>
        <path id="path1423" d="M536.5,570.4l-19.5-76.1h-59.9l-18.3,76.1h-40.3l69.4-278.5h39.1l69.4,278.5h-39.9ZM486.6,375.1l-19.5,80.2h39.9l-20.4-80.2Z" inkscape:connector-curvature="0"/>
        <path id="path1425" d="M714.9,570.4l-39.1-94.8-39.1,94.8h-42l60.7-144.6-56.5-133.8h42l34.9,84,35.3-84h42l-55.7,133.8,60.7,144.6h-43.2Z" inkscape:connector-curvature="0"/>
        <path id="path1427" d="M796.6,570.4v-278.5h39.1v278.5h-39.1Z" inkscape:connector-curvature="0"/>
        <path id="path1429" d="M1040.6,570.4v-156.3l-51.5,156.3-52-156.3v156.3h-39.9v-278.5h39.9l52,156.3,51.5-156.3h40.3v278.5h-40.3Z" inkscape:connector-curvature="0"/>
        <path id="path1431" d="M1297.9,487.3c0,5.5-.3,10.5-.8,15-.3,4.4-.8,8.6-1.7,12.5-.8,3.6-1.9,7.2-3.3,10.8-1.4,3.6-3,7.2-5,10.8-6.9,11.4-16.5,20.8-28.7,28.3-11.9,7.2-24.5,10.8-37.8,10.8s-27-3.6-39.5-10.8c-12.2-7.2-21.8-16.6-28.7-28.3-1.9-3.6-3.6-7.2-5-10.8-1.4-3.6-2.5-7.2-3.3-10.8-.8-3.9-1.5-8-2.1-12.5-.3-4.4-.4-9.4-.4-15v-195.3h39.9v200.3c0,13.3,3.6,24,10.8,32,7.2,8,16.6,12.1,28.3,12.1s19.7-4,26.6-12.1c7.2-8,10.8-18.7,10.8-32v-200.3h39.9v195.3Z" inkscape:connector-curvature="0"/>
        <path id="path1433" d="M1501.7,570.4v-156.3l-51.5,156.3-52-156.3v156.3h-39.9v-278.5h39.9l52,156.3,51.5-156.3h40.3v278.5h-40.3Z" inkscape:connector-curvature="0"/>
        <g id="text25">
          <g id="text26">
            <g id="text27">
              <g id="text28">
                <g id="text29">
                  <g id="text30">
                    <g id="text31">
                      <g id="text32">
                        <g id="text33">
                          <path id="path46" d="M343.4,1779.6v-673.9h-51.5v-89.5c23.7-1.6,42.5-7.4,56.4-17.2,14.7-9.8,26.5-23.3,35.5-40.4h78.4v821h-118.9Z" inkscape:connector-curvature="0"/>
                          <path id="path48" d="M681,1779.6v-673.9h-51.5v-89.5c23.7-1.6,42.5-7.4,56.4-17.2,14.7-9.8,26.5-23.3,35.5-40.4h78.4v821h-118.9Z" inkscape:connector-curvature="0"/>
                          <path id="path50" d="M1448.5,1367.9c0,62.9-3.7,116.4-11,160.5-6.5,44.1-18.4,85.8-35.5,125-20.4,49-46.2,85-77.2,107.8-30.2,22.1-68.6,33.1-115.2,33.1s-89-11-120.1-33.1c-30.2-22.9-55.5-58.8-76-107.8-17.2-40-29.4-81.7-36.8-125-6.5-44.1-9.8-97.6-9.8-160.5s3.3-115.2,9.8-159.3c7.4-44.9,19.6-87,36.8-126.2,21.2-49,47-84.1,77.2-105.4,31-22.1,70.7-33.1,118.9-33.1s86.2,11,116.4,33.1c30.2,21.2,55.5,57.2,76,107.8,8.2,20.4,15.1,40.8,20.8,61.3,6.5,20.4,11.4,42.1,14.7,64.9,4.1,22.1,6.9,46.2,8.6,72.3,1.6,25.3,2.5,53.5,2.5,84.5h0ZM1335.8,1367.9c0-22.9-.8-43.7-2.5-62.5-.8-18.8-2.5-35.9-4.9-51.5-1.6-16.3-4.1-31.9-7.4-46.6-3.3-14.7-6.9-29.4-11-44.1-10.6-36.8-24.1-63.3-40.4-79.6-15.5-16.3-35.5-24.5-60-24.5-50.6,0-85.4,33.9-104.2,101.7-9.8,31-16.7,62.5-20.8,94.4-3.3,31-4.9,69.4-4.9,115.2s.4,42.5,1.2,61.3c1.6,18,3.3,35.1,4.9,51.5,2.5,15.5,5.3,31,8.6,46.6,3.3,15.5,6.9,31.5,11,47.8,18.8,67.8,53.5,101.7,104.2,101.7s44.5-8.2,60-24.5c16.3-16.3,29.8-42.1,40.4-77.2,4.9-16.3,9-31.9,12.3-46.6,3.3-15.5,5.7-31.5,7.4-47.8,2.5-16.3,4.1-33.5,4.9-51.5.8-18.8,1.2-40,1.2-63.7h0Z" inkscape:connector-curvature="0"/>
                        </g>
                      </g>
                    </g>
                  </g>
                </g>
              </g>
            </g>
          </g>
        </g>
      </g>
    </g>
  </g>
  <rect class="st0" x="191.8" y="823.4" width="1319.5" height="1068.3"/>
</svg>