<?xml version="1.0" encoding="UTF-8"?>
<svg xmlns="http://www.w3.org/2000/svg" version="1.1" xmlns:cc="http://creativecommons.org/ns#" xmlns:dc="http://purl.org/dc/elements/1.1/" xmlns:inkscape="http://www.inkscape.org/namespaces/inkscape" xmlns:rdf="http://www.w3.org/1999/02/22-rdf-syntax-ns#" xmlns:sodipodi="http://sodipodi.sourceforge.net/DTD/sodipodi-0.dtd" xmlns:svg="http://www.w3.org/2000/svg" viewBox="0 0 1717.8 2143">
  <!-- Generator: Adobe Illustrator 29.1.0, SVG Export Plug-In . SVG Version: 2.1.0 Build 142)  -->
  <defs>
    <style>
      .st0 {
        fill: #fff;
      }
    </style>
  </defs>
  <g id="svg8">
    <sodipodi:namedview id="base" bordercolor="#666666" borderopacity="1.0" inkscape:current-layer="text33" inkscape:cx="2359.4951" inkscape:cy="549.7405" inkscape:document-units="mm" inkscape:pageopacity="0.0" inkscape:pageshadow="2" inkscape:snap-global="false" inkscape:window-height="1057" inkscape:window-maximized="1" inkscape:window-width="1920" inkscape:window-x="-8" inkscape:window-y="-8" inkscape:zoom="0.12374369" pagecolor="#ffffff" showborder="false" showgrid="false" showguides="false"/>
    <g id="layer1" inkscape:groupmode="layer" inkscape:label="Layer 1">
      <rect id="rect18" x="2.8" y="2.8" width="1712.1" height="2137.3" rx="119.1" ry="119.1"/>
      <rect id="rect20" class="st0" x="8.5" y="8.5" width="1700.8" height="2126" rx="113.4" ry="113.4"/>
      <rect id="rect1284" x="43.9" y="43.9" width="1629.9" height="2055.1" rx="78" ry="78"/>
      <rect id="rect1286" class="st0" x="79.4" y="79.4" width="1559.1" height="1984.3" rx="42.5" ry="42.5"/>
      <g id="text1400">
        <g id="text1419">
          <path id="path1421" d="M319.1,570.4v-156.3l-51.5,156.3-52-156.3v156.3h-39.9v-278.5h39.9l52,156.3,51.5-156.3h40.3v278.5h-40.3Z" inkscape:connector-curvature="0"/>
          <path id="path1423" d="M536.5,570.4l-19.5-76.1h-59.9l-18.3,76.1h-40.3l69.4-278.5h39.1l69.4,278.5h-39.9ZM486.6,375.1l-19.5,80.2h39.9l-20.4-80.2h0Z" inkscape:connector-curvature="0"/>
          <path id="path1425" d="M714.9,570.4l-39.1-94.8-39.1,94.8h-42l60.7-144.6-56.5-133.8h42l34.9,84,35.3-84h42l-55.7,133.8,60.7,144.6h-43.2Z" inkscape:connector-curvature="0"/>
          <path id="path1427" d="M796.6,570.4v-278.5h39.1v278.5h-39.1Z" inkscape:connector-curvature="0"/>
          <path id="path1429" d="M1040.6,570.4v-156.3l-51.5,156.3-52-156.3v156.3h-39.9v-278.5h39.9l52,156.3,51.5-156.3h40.3v278.5h-40.3Z" inkscape:connector-curvature="0"/>
          <path id="path1431" d="M1297.9,487.3c0,5.5-.3,10.5-.8,15-.3,4.4-.8,8.6-1.7,12.5-.8,3.6-1.9,7.2-3.3,10.8s-3,7.2-5,10.8c-6.9,11.4-16.5,20.8-28.7,28.3-11.9,7.2-24.5,10.8-37.8,10.8s-27-3.6-39.5-10.8c-12.2-7.2-21.8-16.6-28.7-28.3-1.9-3.6-3.6-7.2-5-10.8s-2.5-7.2-3.3-10.8c-.8-3.9-1.5-8-2.1-12.5-.3-4.4-.4-9.4-.4-15v-195.3h39.9v200.3c0,13.3,3.6,24,10.8,32,7.2,8,16.6,12.1,28.3,12.1s19.7-4,26.6-12.1c7.2-8,10.8-18.7,10.8-32v-200.3h39.9v195.3h0Z" inkscape:connector-curvature="0"/>
          <path id="path1433" d="M1501.7,570.4v-156.3l-51.5,156.3-52-156.3v156.3h-39.9v-278.5h39.9l52,156.3,51.5-156.3h40.3v278.5h-40.3Z" inkscape:connector-curvature="0"/>
          <g id="text25">
            <g id="text26">
              <g id="text27">
                <g id="text28">
                  <g id="text29">
                    <g id="text30">
                      <g id="text31">
                        <g id="text32">
                          <g id="text33">
                            <path id="path46" d="M343.4,1779.6v-673.9h-51.5v-89.5c23.7-1.6,42.5-7.4,56.4-17.2,14.7-9.8,26.5-23.3,35.5-40.4h78.4v821h-118.9.1Z" inkscape:connector-curvature="0"/>
                            <path id="path48" d="M681,1779.6v-673.9h-51.5v-89.5c23.7-1.6,42.5-7.4,56.4-17.2,14.7-9.8,26.5-23.3,35.5-40.4h78.4v821h-118.9,0Z" inkscape:connector-curvature="0"/>
                            <path id="path50" d="M1448.5,1367.9c0,62.9-3.7,116.4-11,160.5-6.5,44.1-18.4,85.8-35.5,125-20.4,49-46.2,85-77.2,107.8-30.2,22.1-68.6,33.1-115.2,33.1s-89-11-120.1-33.1c-30.2-22.9-55.5-58.8-76-107.8-17.2-40-29.4-81.7-36.8-125-6.5-44.1-9.8-97.6-9.8-160.5s3.3-115.2,9.8-159.3c7.4-44.9,19.6-87,36.8-126.2,21.2-49,47-84.1,77.2-105.4,31-22.1,70.7-33.1,118.9-33.1s86.2,11,116.4,33.1c30.2,21.2,55.5,57.2,76,107.8,8.2,20.4,15.1,40.8,20.8,61.3,6.5,20.4,11.4,42.1,14.7,64.9,4.1,22.1,6.9,46.2,8.6,72.3,1.6,25.3,2.5,53.5,2.5,84.5h-.1ZM1335.8,1367.9c0-22.9-.8-43.7-2.5-62.5-.8-18.8-2.5-35.9-4.9-51.5-1.6-16.3-4.1-31.9-7.4-46.6s-6.9-29.4-11-44.1c-10.6-36.8-24.1-63.3-40.4-79.6-15.5-16.3-35.5-24.5-60-24.5-50.6,0-85.4,33.9-104.2,101.7-9.8,31-16.7,62.5-20.8,94.4-3.3,31-4.9,69.4-4.9,115.2s.4,42.5,1.2,61.3c1.6,18,3.3,35.1,4.9,51.5,2.5,15.5,5.3,31,8.6,46.6,3.3,15.5,6.9,31.5,11,47.8,18.8,67.8,53.5,101.7,104.2,101.7s44.5-8.2,60-24.5c16.3-16.3,29.8-42.1,40.4-77.2,4.9-16.3,9-31.9,12.3-46.6,3.3-15.5,5.7-31.5,7.4-47.8,2.5-16.3,4.1-33.5,4.9-51.5.8-18.8,1.2-40,1.2-63.7h0Z" inkscape:connector-curvature="0"/>
                          </g>
                        </g>
                      </g>
                    </g>
                  </g>
                </g>
              </g>
            </g>
          </g>
        </g>
      </g>
    </g>
    <rect class="st0" x="191.8" y="823.4" width="1319.5" height="1068.3"/>
    <rect class="st0" x="140.7" y="199.5" width="1421.6" height="511.7"/>
  </g>
  <g id="Layer_2">
    <g>
      <path d="M168.1,405.3l-53-113.2h42.6l15.7,40.4c4.7,13.2,9.3,25.4,14.3,39h1.1c5-13.6,10-25.8,14.9-39l15.7-40.4h41.6l-53,113.2v62.8h-39.8v-62.8Z"/>
      <path d="M266.5,379.3c0-57.5,32.5-90.5,79.9-90.5s79.9,33.2,79.9,90.5-32.5,92-79.9,92-79.9-34.5-79.9-92ZM385.6,379.3c0-35.3-15.1-56.1-39.2-56.1s-39.2,20.8-39.2,56.1,15.1,57.6,39.2,57.6,39.2-22.4,39.2-57.6Z"/>
      <path d="M458.5,386.5v-94.4h39.8v98.5c0,34.5,10.9,46.4,30.5,46.4s31.2-11.9,31.2-46.4v-98.5h38.4v94.4c0,59.1-24,84.8-69.5,84.8s-70.3-25.7-70.3-84.8Z"/>
      <path d="M639,292.1h63.4c37.3,0,67.9,13,67.9,54.8s-30.6,57.8-67.9,57.8h-23.6v63.3h-39.8v-176ZM699.2,373.1c20.9,0,32.2-9,32.2-26.3s-11.2-23.2-32.2-23.2h-20.4v49.5h20.4ZM695.1,394.2l27.5-25.5,56.2,99.3h-44.5l-39.2-73.8Z"/>
      <path d="M847.2,445.8l22.8-27.3c12.5,10.9,28.7,18.4,43.2,18.4s24.7-6.5,24.7-17-10-14.6-25.4-21l-22.9-9.8c-18.2-7.4-35.5-22.4-35.5-48s26.1-52.4,62.7-52.4,41.5,8,56.6,23.1l-20.1,25.1c-11.6-8.9-22.6-13.8-36.5-13.8s-22.4,5.7-22.4,15.8,11.5,14.7,26.9,20.8l22.4,9.1c21.5,8.7,34.9,23,34.9,47.9s-24.4,54.5-66.3,54.5-47.2-8.7-65.2-25.4Z"/>
      <path d="M1008.7,292.1h60.5c38.7,0,70,13.9,70,56.6s-31.6,59.7-68.9,59.7h-21.8v59.7h-39.8v-176ZM1067.9,376.8c21.9,0,32.2-9.8,32.2-28.1s-11.8-25-33.3-25h-18.3v53.1h19.4Z"/>
      <path d="M1169.6,292.1h110.3v33.4h-70.5v35.3h60v33.4h-60v40.5h73.2v33.4h-113v-176Z"/>
      <path d="M1317.5,292.1h110.3v33.4h-70.5v35.3h60v33.4h-60v40.5h73.2v33.4h-113v-176Z"/>
      <path d="M1465.5,292.1h49.7c53.7,0,88.4,26.7,88.4,87.2s-34.6,88.8-86.2,88.8h-52v-176ZM1512.8,436c29.8,0,50-14.6,50-56.7s-20.2-55.2-50-55.2h-7.5v111.9h7.5Z"/>
    </g>
  </g>
</svg>